<?xml version="1.0" encoding="UTF-8" standalone="no"?>
<!DOCTYPE svg PUBLIC "-//W3C//DTD SVG 1.1//EN"
 "http://www.w3.org/Graphics/SVG/1.1/DTD/svg11.dtd">
<!-- Generated by graphviz version 2.38.0 (20140413.2041)
 -->
<!-- Title: controllers_diagram Pages: 1 -->
<svg width="720pt" height="618pt"
 viewBox="0.00 0.00 719.50 618.00" xmlns="http://www.w3.org/2000/svg" xmlns:xlink="http://www.w3.org/1999/xlink">
<g id="graph0" class="graph" transform="scale(1 1) rotate(0) translate(309.5 398)">
<title>controllers_diagram</title>
<polygon fill="none" stroke="none" points="-309.5,220 -309.5,-398 410,-398 410,220 -309.5,220"/>
<!-- _diagram_info -->
<g id="node1" class="node"><title>_diagram_info</title>
<text text-anchor="start" x="-208" y="152.4" font-family="Times,serif" font-size="13.00">Controllers diagram</text>
<text text-anchor="start" x="-208" y="166.4" font-family="Times,serif" font-size="13.00">Date: Dec 08 2017 &#45; 20:57</text>
<text text-anchor="start" x="-208" y="180.4" font-family="Times,serif" font-size="13.00">Migration version: 20171117194146</text>
<text text-anchor="start" x="-208" y="194.4" font-family="Times,serif" font-size="13.00">Generated by RailRoady 1.5.3</text>
<text text-anchor="start" x="-208" y="208.4" font-family="Times,serif" font-size="13.00">http://railroady.prestonlee.com</text>
</g>
<!-- HoursController -->
<g id="node2" class="node"><title>HoursController</title>
<path fill="none" stroke="black" d="M174.5,161.5C174.5,161.5 255.5,161.5 255.5,161.5 261.5,161.5 267.5,155.5 267.5,149.5 267.5,149.5 267.5,-39.5 267.5,-39.5 267.5,-45.5 261.5,-51.5 255.5,-51.5 255.5,-51.5 174.5,-51.5 174.5,-51.5 168.5,-51.5 162.5,-45.5 162.5,-39.5 162.5,-39.5 162.5,149.5 162.5,149.5 162.5,155.5 168.5,161.5 174.5,161.5"/>
<text text-anchor="middle" x="215" y="-36.3" font-family="Times,serif" font-size="14.00">HoursController</text>
<polyline fill="none" stroke="black" points="162.5,-28.5 267.5,-28.5 "/>
<text text-anchor="start" x="170.5" y="-13.3" font-family="Times,serif" font-size="14.00">create</text>
<text text-anchor="start" x="170.5" y="1.7" font-family="Times,serif" font-size="14.00">destroy</text>
<text text-anchor="start" x="170.5" y="16.7" font-family="Times,serif" font-size="14.00">edit</text>
<text text-anchor="start" x="170.5" y="31.7" font-family="Times,serif" font-size="14.00">index</text>
<text text-anchor="start" x="170.5" y="46.7" font-family="Times,serif" font-size="14.00">new</text>
<text text-anchor="start" x="170.5" y="61.7" font-family="Times,serif" font-size="14.00">show</text>
<text text-anchor="start" x="170.5" y="76.7" font-family="Times,serif" font-size="14.00">update</text>
<polyline fill="none" stroke="black" points="162.5,84.5 267.5,84.5 "/>
<polyline fill="none" stroke="black" points="162.5,108.5 267.5,108.5 "/>
<text text-anchor="start" x="170.5" y="123.7" font-family="Times,serif" font-size="14.00">_layout</text>
<text text-anchor="start" x="170.5" y="138.7" font-family="Times,serif" font-size="14.00">hour_params</text>
<text text-anchor="start" x="170.5" y="153.7" font-family="Times,serif" font-size="14.00">set_hour</text>
</g>
<!-- ChartsController -->
<g id="node3" class="node"><title>ChartsController</title>
<path fill="none" stroke="black" d="M-131.5,107.5C-131.5,107.5 111.5,107.5 111.5,107.5 117.5,107.5 123.5,101.5 123.5,95.5 123.5,95.5 123.5,-63.5 123.5,-63.5 123.5,-69.5 117.5,-75.5 111.5,-75.5 111.5,-75.5 -131.5,-75.5 -131.5,-75.5 -137.5,-75.5 -143.5,-69.5 -143.5,-63.5 -143.5,-63.5 -143.5,95.5 -143.5,95.5 -143.5,101.5 -137.5,107.5 -131.5,107.5"/>
<text text-anchor="middle" x="-10" y="-60.3" font-family="Times,serif" font-size="14.00">ChartsController</text>
<polyline fill="none" stroke="black" points="-143.5,-52.5 123.5,-52.5 "/>
<text text-anchor="start" x="-135.5" y="-37.3" font-family="Times,serif" font-size="14.00">total_hour_count_per_day</text>
<text text-anchor="start" x="-135.5" y="-22.3" font-family="Times,serif" font-size="14.00">total_hours</text>
<text text-anchor="start" x="-135.5" y="-7.3" font-family="Times,serif" font-size="14.00">total_invoices_amount_per_client</text>
<text text-anchor="start" x="-135.5" y="7.7" font-family="Times,serif" font-size="14.00">total_invoices_amount_per_client_per_day</text>
<text text-anchor="start" x="-135.5" y="22.7" font-family="Times,serif" font-size="14.00">total_invoices_amount_per_day_of_the_week</text>
<text text-anchor="start" x="-135.5" y="37.7" font-family="Times,serif" font-size="14.00">total_invoices_amount_per_month</text>
<text text-anchor="start" x="-135.5" y="52.7" font-family="Times,serif" font-size="14.00">total_single_invoice_amount</text>
<polyline fill="none" stroke="black" points="-143.5,60.5 123.5,60.5 "/>
<polyline fill="none" stroke="black" points="-143.5,84.5 123.5,84.5 "/>
<text text-anchor="start" x="-135.5" y="99.7" font-family="Times,serif" font-size="14.00">_layout</text>
</g>
<!-- StaticPagesController -->
<g id="node4" class="node"><title>StaticPagesController</title>
<path fill="none" stroke="black" d="M282,-91C282,-91 392,-91 392,-91 398,-91 404,-97 404,-103 404,-103 404,-217 404,-217 404,-223 398,-229 392,-229 392,-229 282,-229 282,-229 276,-229 270,-223 270,-217 270,-217 270,-103 270,-103 270,-97 276,-91 282,-91"/>
<text text-anchor="middle" x="337" y="-213.8" font-family="Times,serif" font-size="14.00">StaticPagesController</text>
<polyline fill="none" stroke="black" points="270,-206 404,-206 "/>
<text text-anchor="start" x="278" y="-190.8" font-family="Times,serif" font-size="14.00">about</text>
<text text-anchor="start" x="278" y="-175.8" font-family="Times,serif" font-size="14.00">help</text>
<text text-anchor="start" x="278" y="-160.8" font-family="Times,serif" font-size="14.00">home</text>
<text text-anchor="start" x="278" y="-145.8" font-family="Times,serif" font-size="14.00">statistics</text>
<polyline fill="none" stroke="black" points="270,-138 404,-138 "/>
<polyline fill="none" stroke="black" points="270,-114 404,-114 "/>
<text text-anchor="start" x="278" y="-98.8" font-family="Times,serif" font-size="14.00">_layout</text>
</g>
<!-- ClientsController -->
<g id="node5" class="node"><title>ClientsController</title>
<path fill="none" stroke="black" d="M-168,-180.5C-168,-180.5 -82,-180.5 -82,-180.5 -76,-180.5 -70,-186.5 -70,-192.5 -70,-192.5 -70,-381.5 -70,-381.5 -70,-387.5 -76,-393.5 -82,-393.5 -82,-393.5 -168,-393.5 -168,-393.5 -174,-393.5 -180,-387.5 -180,-381.5 -180,-381.5 -180,-192.5 -180,-192.5 -180,-186.5 -174,-180.5 -168,-180.5"/>
<text text-anchor="middle" x="-125" y="-378.3" font-family="Times,serif" font-size="14.00">ClientsController</text>
<polyline fill="none" stroke="black" points="-180,-370.5 -70,-370.5 "/>
<text text-anchor="start" x="-172" y="-355.3" font-family="Times,serif" font-size="14.00">create</text>
<text text-anchor="start" x="-172" y="-340.3" font-family="Times,serif" font-size="14.00">destroy</text>
<text text-anchor="start" x="-172" y="-325.3" font-family="Times,serif" font-size="14.00">edit</text>
<text text-anchor="start" x="-172" y="-310.3" font-family="Times,serif" font-size="14.00">index</text>
<text text-anchor="start" x="-172" y="-295.3" font-family="Times,serif" font-size="14.00">new</text>
<text text-anchor="start" x="-172" y="-280.3" font-family="Times,serif" font-size="14.00">show</text>
<text text-anchor="start" x="-172" y="-265.3" font-family="Times,serif" font-size="14.00">update</text>
<polyline fill="none" stroke="black" points="-180,-257.5 -70,-257.5 "/>
<polyline fill="none" stroke="black" points="-180,-233.5 -70,-233.5 "/>
<text text-anchor="start" x="-172" y="-218.3" font-family="Times,serif" font-size="14.00">_layout</text>
<text text-anchor="start" x="-172" y="-203.3" font-family="Times,serif" font-size="14.00">client_params</text>
<text text-anchor="start" x="-172" y="-188.3" font-family="Times,serif" font-size="14.00">set_client</text>
</g>
<!-- InvoicesController -->
<g id="node6" class="node"><title>InvoicesController</title>
<path fill="none" stroke="black" d="M120,-109C120,-109 214,-109 214,-109 220,-109 226,-115 226,-121 226,-121 226,-355 226,-355 226,-361 220,-367 214,-367 214,-367 120,-367 120,-367 114,-367 108,-361 108,-355 108,-355 108,-121 108,-121 108,-115 114,-109 120,-109"/>
<text text-anchor="middle" x="167" y="-351.8" font-family="Times,serif" font-size="14.00">InvoicesController</text>
<polyline fill="none" stroke="black" points="108,-344 226,-344 "/>
<text text-anchor="start" x="116" y="-328.8" font-family="Times,serif" font-size="14.00">create</text>
<text text-anchor="start" x="116" y="-313.8" font-family="Times,serif" font-size="14.00">default</text>
<text text-anchor="start" x="116" y="-298.8" font-family="Times,serif" font-size="14.00">destroy</text>
<text text-anchor="start" x="116" y="-283.8" font-family="Times,serif" font-size="14.00">document</text>
<text text-anchor="start" x="116" y="-268.8" font-family="Times,serif" font-size="14.00">edit</text>
<text text-anchor="start" x="116" y="-253.8" font-family="Times,serif" font-size="14.00">index</text>
<text text-anchor="start" x="116" y="-238.8" font-family="Times,serif" font-size="14.00">new</text>
<text text-anchor="start" x="116" y="-223.8" font-family="Times,serif" font-size="14.00">pdf</text>
<text text-anchor="start" x="116" y="-208.8" font-family="Times,serif" font-size="14.00">show</text>
<text text-anchor="start" x="116" y="-193.8" font-family="Times,serif" font-size="14.00">update</text>
<polyline fill="none" stroke="black" points="108,-186 226,-186 "/>
<polyline fill="none" stroke="black" points="108,-162 226,-162 "/>
<text text-anchor="start" x="116" y="-146.8" font-family="Times,serif" font-size="14.00">_layout</text>
<text text-anchor="start" x="116" y="-131.8" font-family="Times,serif" font-size="14.00">invoice_params</text>
<text text-anchor="start" x="116" y="-116.8" font-family="Times,serif" font-size="14.00">set_invoice</text>
</g>
<!-- UsersController -->
<g id="node7" class="node"><title>UsersController</title>
<path fill="none" stroke="black" d="M-23.5,-109C-23.5,-109 55.5,-109 55.5,-109 61.5,-109 67.5,-115 67.5,-121 67.5,-121 67.5,-325 67.5,-325 67.5,-331 61.5,-337 55.5,-337 55.5,-337 -23.5,-337 -23.5,-337 -29.5,-337 -35.5,-331 -35.5,-325 -35.5,-325 -35.5,-121 -35.5,-121 -35.5,-115 -29.5,-109 -23.5,-109"/>
<text text-anchor="middle" x="16" y="-321.8" font-family="Times,serif" font-size="14.00">UsersController</text>
<polyline fill="none" stroke="black" points="-35.5,-314 67.5,-314 "/>
<text text-anchor="start" x="-27.5" y="-298.8" font-family="Times,serif" font-size="14.00">address</text>
<text text-anchor="start" x="-27.5" y="-283.8" font-family="Times,serif" font-size="14.00">create</text>
<text text-anchor="start" x="-27.5" y="-268.8" font-family="Times,serif" font-size="14.00">destroy</text>
<text text-anchor="start" x="-27.5" y="-253.8" font-family="Times,serif" font-size="14.00">edit</text>
<text text-anchor="start" x="-27.5" y="-238.8" font-family="Times,serif" font-size="14.00">index</text>
<text text-anchor="start" x="-27.5" y="-223.8" font-family="Times,serif" font-size="14.00">new</text>
<text text-anchor="start" x="-27.5" y="-208.8" font-family="Times,serif" font-size="14.00">show</text>
<text text-anchor="start" x="-27.5" y="-193.8" font-family="Times,serif" font-size="14.00">update</text>
<polyline fill="none" stroke="black" points="-35.5,-186 67.5,-186 "/>
<polyline fill="none" stroke="black" points="-35.5,-162 67.5,-162 "/>
<text text-anchor="start" x="-27.5" y="-146.8" font-family="Times,serif" font-size="14.00">_layout</text>
<text text-anchor="start" x="-27.5" y="-131.8" font-family="Times,serif" font-size="14.00">set_user</text>
<text text-anchor="start" x="-27.5" y="-116.8" font-family="Times,serif" font-size="14.00">user_params</text>
</g>
<!-- ApplicationController -->
<g id="node8" class="node"><title>ApplicationController</title>
<path fill="none" stroke="black" d="M282,-270.5C282,-270.5 394,-270.5 394,-270.5 400,-270.5 406,-276.5 406,-282.5 406,-282.5 406,-367.5 406,-367.5 406,-373.5 400,-379.5 394,-379.5 394,-379.5 282,-379.5 282,-379.5 276,-379.5 270,-373.5 270,-367.5 270,-367.5 270,-282.5 270,-282.5 270,-276.5 276,-270.5 282,-270.5"/>
<text text-anchor="middle" x="338" y="-364.3" font-family="Times,serif" font-size="14.00">ApplicationController</text>
<polyline fill="none" stroke="black" points="270,-356.5 406,-356.5 "/>
<polyline fill="none" stroke="black" points="270,-332.5 406,-332.5 "/>
<polyline fill="none" stroke="black" points="270,-308.5 406,-308.5 "/>
<text text-anchor="start" x="278" y="-293.3" font-family="Times,serif" font-size="14.00">_layout</text>
<text text-anchor="start" x="278" y="-278.3" font-family="Times,serif" font-size="14.00">require_login</text>
</g>
<!-- SessionsController -->
<g id="node9" class="node"><title>SessionsController</title>
<path fill="none" stroke="black" d="M-293.5,-0.5C-293.5,-0.5 -198.5,-0.5 -198.5,-0.5 -192.5,-0.5 -186.5,-6.5 -186.5,-12.5 -186.5,-12.5 -186.5,-111.5 -186.5,-111.5 -186.5,-117.5 -192.5,-123.5 -198.5,-123.5 -198.5,-123.5 -293.5,-123.5 -293.5,-123.5 -299.5,-123.5 -305.5,-117.5 -305.5,-111.5 -305.5,-111.5 -305.5,-12.5 -305.5,-12.5 -305.5,-6.5 -299.5,-0.5 -293.5,-0.5"/>
<text text-anchor="middle" x="-246" y="-108.3" font-family="Times,serif" font-size="14.00">SessionsController</text>
<polyline fill="none" stroke="black" points="-305.5,-100.5 -186.5,-100.5 "/>
<text text-anchor="start" x="-297.5" y="-85.3" font-family="Times,serif" font-size="14.00">create</text>
<text text-anchor="start" x="-297.5" y="-70.3" font-family="Times,serif" font-size="14.00">destroy</text>
<text text-anchor="start" x="-297.5" y="-55.3" font-family="Times,serif" font-size="14.00">new</text>
<polyline fill="none" stroke="black" points="-305.5,-47.5 -186.5,-47.5 "/>
<polyline fill="none" stroke="black" points="-305.5,-23.5 -186.5,-23.5 "/>
<text text-anchor="start" x="-297.5" y="-8.3" font-family="Times,serif" font-size="14.00">_layout</text>
</g>
</g>
</svg>
