<?xml version="1.0" encoding="UTF-8" standalone="no"?>
<!DOCTYPE svg PUBLIC "-//W3C//DTD SVG 1.1//EN"
 "http://www.w3.org/Graphics/SVG/1.1/DTD/svg11.dtd">
<!-- Generated by graphviz version 2.38.0 (20140413.2041)
 -->
<!-- Title: models_diagram Pages: 1 -->
<svg width="568pt" height="716pt"
 viewBox="0.00 0.00 568.34 716.00" xmlns="http://www.w3.org/2000/svg" xmlns:xlink="http://www.w3.org/1999/xlink">
<g id="graph0" class="graph" transform="scale(1 1) rotate(0) translate(4 712)">
<title>models_diagram</title>
<polygon fill="none" stroke="none" points="-4,4 -4,-712 564.343,-712 564.343,4 -4,4"/>
<!-- _diagram_info -->
<g id="node1" class="node"><title>_diagram_info</title>
<text text-anchor="start" x="8" y="-626.6" font-family="Times,serif" font-size="13.00">Models diagram</text>
<text text-anchor="start" x="8" y="-612.6" font-family="Times,serif" font-size="13.00">Date: Dec 08 2017 &#45; 20:57</text>
<text text-anchor="start" x="8" y="-598.6" font-family="Times,serif" font-size="13.00">Migration version: 20171117194146</text>
<text text-anchor="start" x="8" y="-584.6" font-family="Times,serif" font-size="13.00">Generated by RailRoady 1.5.3</text>
<text text-anchor="start" x="8" y="-570.6" font-family="Times,serif" font-size="13.00">http://railroady.prestonlee.com</text>
</g>
<!-- Invoice -->
<g id="node2" class="node"><title>Invoice</title>
<path fill="none" stroke="black" d="M51.5,-301C51.5,-301 158.5,-301 158.5,-301 164.5,-301 170.5,-307 170.5,-313 170.5,-313 170.5,-380 170.5,-380 170.5,-386 164.5,-392 158.5,-392 158.5,-392 51.5,-392 51.5,-392 45.5,-392 39.5,-386 39.5,-380 39.5,-380 39.5,-313 39.5,-313 39.5,-307 45.5,-301 51.5,-301"/>
<text text-anchor="middle" x="105" y="-376.8" font-family="Times,serif" font-size="14.00">Invoice</text>
<polyline fill="none" stroke="black" points="39.5,-369 170.5,-369 "/>
<text text-anchor="start" x="47.5" y="-353.8" font-family="Times,serif" font-size="14.00">id :INTEGER</text>
<text text-anchor="start" x="47.5" y="-338.8" font-family="Times,serif" font-size="14.00">created_at :datetime</text>
<text text-anchor="start" x="47.5" y="-323.8" font-family="Times,serif" font-size="14.00">updated_at :datetime</text>
<text text-anchor="start" x="47.5" y="-308.8" font-family="Times,serif" font-size="14.00">total_amount :float</text>
</g>
<!-- Hour -->
<g id="node6" class="node"><title>Hour</title>
<path fill="none" stroke="black" d="M206.5,-0.5C206.5,-0.5 313.5,-0.5 313.5,-0.5 319.5,-0.5 325.5,-6.5 325.5,-12.5 325.5,-12.5 325.5,-184.5 325.5,-184.5 325.5,-190.5 319.5,-196.5 313.5,-196.5 313.5,-196.5 206.5,-196.5 206.5,-196.5 200.5,-196.5 194.5,-190.5 194.5,-184.5 194.5,-184.5 194.5,-12.5 194.5,-12.5 194.5,-6.5 200.5,-0.5 206.5,-0.5"/>
<text text-anchor="middle" x="260" y="-181.3" font-family="Times,serif" font-size="14.00">Hour</text>
<polyline fill="none" stroke="black" points="194.5,-173.5 325.5,-173.5 "/>
<text text-anchor="start" x="202.5" y="-158.3" font-family="Times,serif" font-size="14.00">id :INTEGER</text>
<text text-anchor="start" x="202.5" y="-143.3" font-family="Times,serif" font-size="14.00">date :date</text>
<text text-anchor="start" x="202.5" y="-128.3" font-family="Times,serif" font-size="14.00">start_time :time</text>
<text text-anchor="start" x="202.5" y="-113.3" font-family="Times,serif" font-size="14.00">end_time :time</text>
<text text-anchor="start" x="202.5" y="-98.3" font-family="Times,serif" font-size="14.00">description :text</text>
<text text-anchor="start" x="202.5" y="-83.3" font-family="Times,serif" font-size="14.00">created_at :datetime</text>
<text text-anchor="start" x="202.5" y="-68.3" font-family="Times,serif" font-size="14.00">updated_at :datetime</text>
<text text-anchor="start" x="202.5" y="-53.3" font-family="Times,serif" font-size="14.00">user_id :integer</text>
<text text-anchor="start" x="202.5" y="-38.3" font-family="Times,serif" font-size="14.00">client_id :integer</text>
<text text-anchor="start" x="202.5" y="-23.3" font-family="Times,serif" font-size="14.00">is_fatturata :boolean</text>
<text text-anchor="start" x="202.5" y="-8.3" font-family="Times,serif" font-size="14.00">invoice_id :integer</text>
</g>
<!-- Invoice&#45;&gt;Hour -->
<g id="edge1" class="edge"><title>Invoice&#45;&gt;Hour</title>
<path fill="none" stroke="#892791" d="M137.475,-293.959C153.703,-268.204 173.963,-236.049 193.307,-205.348"/>
<ellipse fill="none" stroke="#892791" cx="135.202" cy="-297.567" rx="4.00002" ry="4.00002"/>
<polygon fill="#892791" stroke="#892791" points="193.404,-205.195 202.542,-199.133 196.069,-200.964 198.735,-196.734 198.735,-196.734 198.735,-196.734 196.069,-200.964 194.927,-194.335 193.404,-205.195 193.404,-205.195"/>
</g>
<!-- User -->
<g id="node3" class="node"><title>User</title>
<path fill="none" stroke="black" d="M244.5,-496.5C244.5,-496.5 375.5,-496.5 375.5,-496.5 381.5,-496.5 387.5,-502.5 387.5,-508.5 387.5,-508.5 387.5,-695.5 387.5,-695.5 387.5,-701.5 381.5,-707.5 375.5,-707.5 375.5,-707.5 244.5,-707.5 244.5,-707.5 238.5,-707.5 232.5,-701.5 232.5,-695.5 232.5,-695.5 232.5,-508.5 232.5,-508.5 232.5,-502.5 238.5,-496.5 244.5,-496.5"/>
<text text-anchor="middle" x="310" y="-692.3" font-family="Times,serif" font-size="14.00">User</text>
<polyline fill="none" stroke="black" points="232.5,-684.5 387.5,-684.5 "/>
<text text-anchor="start" x="240.5" y="-669.3" font-family="Times,serif" font-size="14.00">id :INTEGER</text>
<text text-anchor="start" x="240.5" y="-654.3" font-family="Times,serif" font-size="14.00">name :varchar</text>
<text text-anchor="start" x="240.5" y="-639.3" font-family="Times,serif" font-size="14.00">email :varchar</text>
<text text-anchor="start" x="240.5" y="-624.3" font-family="Times,serif" font-size="14.00">created_at :datetime</text>
<text text-anchor="start" x="240.5" y="-609.3" font-family="Times,serif" font-size="14.00">updated_at :datetime</text>
<text text-anchor="start" x="240.5" y="-594.3" font-family="Times,serif" font-size="14.00">password_digest :varchar</text>
<text text-anchor="start" x="240.5" y="-579.3" font-family="Times,serif" font-size="14.00">tarif :float</text>
<text text-anchor="start" x="240.5" y="-564.3" font-family="Times,serif" font-size="14.00">street_name :varchar</text>
<text text-anchor="start" x="240.5" y="-549.3" font-family="Times,serif" font-size="14.00">street_number :integer</text>
<text text-anchor="start" x="240.5" y="-534.3" font-family="Times,serif" font-size="14.00">postal_code :integer</text>
<text text-anchor="start" x="240.5" y="-519.3" font-family="Times,serif" font-size="14.00">city :varchar</text>
<text text-anchor="start" x="240.5" y="-504.3" font-family="Times,serif" font-size="14.00">state :varchar</text>
</g>
<!-- Client -->
<g id="node5" class="node"><title>Client</title>
<path fill="none" stroke="black" d="M201,-233.5C201,-233.5 319,-233.5 319,-233.5 325,-233.5 331,-239.5 331,-245.5 331,-245.5 331,-447.5 331,-447.5 331,-453.5 325,-459.5 319,-459.5 319,-459.5 201,-459.5 201,-459.5 195,-459.5 189,-453.5 189,-447.5 189,-447.5 189,-245.5 189,-245.5 189,-239.5 195,-233.5 201,-233.5"/>
<text text-anchor="middle" x="260" y="-444.3" font-family="Times,serif" font-size="14.00">Client</text>
<polyline fill="none" stroke="black" points="189,-436.5 331,-436.5 "/>
<text text-anchor="start" x="197" y="-421.3" font-family="Times,serif" font-size="14.00">id :INTEGER</text>
<text text-anchor="start" x="197" y="-406.3" font-family="Times,serif" font-size="14.00">name :varchar</text>
<text text-anchor="start" x="197" y="-391.3" font-family="Times,serif" font-size="14.00">codice_fiscale :varchar</text>
<text text-anchor="start" x="197" y="-376.3" font-family="Times,serif" font-size="14.00">email :varchar</text>
<text text-anchor="start" x="197" y="-361.3" font-family="Times,serif" font-size="14.00">partita_iva :integer</text>
<text text-anchor="start" x="197" y="-346.3" font-family="Times,serif" font-size="14.00">created_at :datetime</text>
<text text-anchor="start" x="197" y="-331.3" font-family="Times,serif" font-size="14.00">updated_at :datetime</text>
<text text-anchor="start" x="197" y="-316.3" font-family="Times,serif" font-size="14.00">user_id :integer</text>
<text text-anchor="start" x="197" y="-301.3" font-family="Times,serif" font-size="14.00">street_name :varchar</text>
<text text-anchor="start" x="197" y="-286.3" font-family="Times,serif" font-size="14.00">street_number :integer</text>
<text text-anchor="start" x="197" y="-271.3" font-family="Times,serif" font-size="14.00">postal_code :integer</text>
<text text-anchor="start" x="197" y="-256.3" font-family="Times,serif" font-size="14.00">city :varchar</text>
<text text-anchor="start" x="197" y="-241.3" font-family="Times,serif" font-size="14.00">state :varchar</text>
</g>
<!-- User&#45;&gt;Client -->
<g id="edge3" class="edge"><title>User&#45;&gt;Client</title>
<path fill="none" stroke="#226161" d="M287.796,-488.427C286.559,-482.152 285.312,-475.831 284.068,-469.525"/>
<ellipse fill="none" stroke="#226161" cx="288.6" cy="-492.504" rx="4.00001" ry="4.00001"/>
<polygon fill="#226161" stroke="#226161" points="284.053,-469.448 286.533,-458.766 283.085,-464.543 282.118,-459.637 282.118,-459.637 282.118,-459.637 283.085,-464.543 277.703,-460.508 284.053,-469.448 284.053,-469.448"/>
</g>
<!-- User&#45;&gt;Hour -->
<g id="edge2" class="edge"><title>User&#45;&gt;Hour</title>
<path fill="none" stroke="#3a2112" d="M339.136,-488.499C353.426,-414.642 363.131,-316.6 340,-233 337.379,-223.527 333.888,-214.051 329.826,-204.764"/>
<ellipse fill="none" stroke="#3a2112" cx="338.334" cy="-492.551" rx="4.00001" ry="4.00001"/>
<polygon fill="#3a2112" stroke="#3a2112" points="329.766,-204.632 329.674,-193.666 327.676,-200.09 325.586,-195.547 325.586,-195.547 325.586,-195.547 327.676,-200.09 321.498,-197.428 329.766,-204.632 329.766,-204.632"/>
</g>
<!-- ApplicationRecord -->
<g id="node4" class="node"><title>ApplicationRecord</title>
<ellipse fill="none" stroke="black" cx="483" cy="-602" rx="77.1866" ry="18"/>
<text text-anchor="middle" x="483" y="-598.3" font-family="Times,serif" font-size="14.00">ApplicationRecord</text>
</g>
<!-- Client&#45;&gt;Hour -->
<g id="edge4" class="edge"><title>Client&#45;&gt;Hour</title>
<path fill="none" stroke="#0080fc" d="M260,-225.014C260,-218.966 260,-212.911 260,-206.906"/>
<ellipse fill="none" stroke="#0080fc" cx="260" cy="-229.298" rx="4" ry="4"/>
<polygon fill="#0080fc" stroke="#0080fc" points="260,-206.858 264.5,-196.858 260,-201.858 260,-196.858 260,-196.858 260,-196.858 260,-201.858 255.5,-196.858 260,-206.858 260,-206.858"/>
</g>
</g>
</svg>
