<?xml version="1.0" encoding="UTF-8" standalone="no"?>
<!DOCTYPE svg PUBLIC "-//W3C//DTD SVG 1.1//EN"
 "http://www.w3.org/Graphics/SVG/1.1/DTD/svg11.dtd">
<!-- Generated by graphviz version 2.38.0 (20140413.2041)
 -->
<!-- Title: models_diagram Pages: 1 -->
<svg width="467pt" height="230pt"
 viewBox="0.00 0.00 467.34 230.00" xmlns="http://www.w3.org/2000/svg" xmlns:xlink="http://www.w3.org/1999/xlink">
<g id="graph0" class="graph" transform="scale(1 1) rotate(0) translate(4 226)">
<title>models_diagram</title>
<polygon fill="none" stroke="none" points="-4,4 -4,-226 463.343,-226 463.343,4 -4,4"/>
<!-- _diagram_info -->
<g id="node1" class="node"><title>_diagram_info</title>
<text text-anchor="start" x="8" y="-207.6" font-family="Times,serif" font-size="13.00">Models diagram</text>
<text text-anchor="start" x="8" y="-193.6" font-family="Times,serif" font-size="13.00">Date: Dec 08 2017 &#45; 20:57</text>
<text text-anchor="start" x="8" y="-179.6" font-family="Times,serif" font-size="13.00">Migration version: 20171117194146</text>
<text text-anchor="start" x="8" y="-165.6" font-family="Times,serif" font-size="13.00">Generated by RailRoady 1.5.3</text>
<text text-anchor="start" x="8" y="-151.6" font-family="Times,serif" font-size="13.00">http://railroady.prestonlee.com</text>
</g>
<!-- Invoice -->
<g id="node2" class="node"><title>Invoice</title>
<ellipse fill="none" stroke="black" cx="141" cy="-90" rx="37.0935" ry="18"/>
<text text-anchor="middle" x="141" y="-86.3" font-family="Times,serif" font-size="14.00">Invoice</text>
</g>
<!-- Hour -->
<g id="node6" class="node"><title>Hour</title>
<ellipse fill="none" stroke="black" cx="229" cy="-18" rx="28.6953" ry="18"/>
<text text-anchor="middle" x="229" y="-14.3" font-family="Times,serif" font-size="14.00">Hour</text>
</g>
<!-- Invoice&#45;&gt;Hour -->
<g id="edge1" class="edge"><title>Invoice&#45;&gt;Hour</title>
<path fill="none" stroke="#c841fe" d="M166.117,-69.0204C177.9,-59.6479 191.912,-48.5019 203.715,-39.1127"/>
<ellipse fill="none" stroke="#c841fe" cx="162.793" cy="-71.6647" rx="4.00002" ry="4.00002"/>
<polygon fill="#c841fe" stroke="#c841fe" points="204.03,-38.8621 214.658,-36.1586 207.943,-35.7495 211.857,-32.6369 211.857,-32.6369 211.857,-32.6369 207.943,-35.7495 209.055,-29.1152 204.03,-38.8621 204.03,-38.8621"/>
</g>
<!-- User -->
<g id="node3" class="node"><title>User</title>
<ellipse fill="none" stroke="black" cx="259" cy="-183" rx="27.0966" ry="18"/>
<text text-anchor="middle" x="259" y="-179.3" font-family="Times,serif" font-size="14.00">User</text>
</g>
<!-- Client -->
<g id="node5" class="node"><title>Client</title>
<ellipse fill="none" stroke="black" cx="229" cy="-90" rx="32.4942" ry="18"/>
<text text-anchor="middle" x="229" y="-86.3" font-family="Times,serif" font-size="14.00">Client</text>
</g>
<!-- User&#45;&gt;Client -->
<g id="edge3" class="edge"><title>User&#45;&gt;Client</title>
<path fill="none" stroke="#5f2375" d="M250.937,-157.543C246.852,-145.152 241.887,-130.09 237.714,-117.432"/>
<ellipse fill="none" stroke="#5f2375" cx="252.245" cy="-161.51" rx="4.00001" ry="4.00001"/>
<polygon fill="#5f2375" stroke="#5f2375" points="237.7,-117.39 238.843,-106.484 236.135,-112.642 234.569,-107.893 234.569,-107.893 234.569,-107.893 236.135,-112.642 230.295,-109.302 237.7,-117.39 237.7,-117.39"/>
</g>
<!-- User&#45;&gt;Hour -->
<g id="edge2" class="edge"><title>User&#45;&gt;Hour</title>
<path fill="none" stroke="#b24902" d="M267.28,-157.276C273.559,-134.524 279.616,-100.145 270,-72 266.141,-60.706 258.791,-49.9521 251.367,-41.1194"/>
<ellipse fill="none" stroke="#b24902" cx="266.112" cy="-161.261" rx="4.00001" ry="4.00001"/>
<polygon fill="#b24902" stroke="#b24902" points="251.295,-41.0391 247.979,-30.5865 247.96,-37.3133 244.626,-33.5874 244.626,-33.5874 244.626,-33.5874 247.96,-37.3133 241.273,-36.5884 251.295,-41.0391 251.295,-41.0391"/>
</g>
<!-- ApplicationRecord -->
<g id="node4" class="node"><title>ApplicationRecord</title>
<ellipse fill="none" stroke="black" cx="382" cy="-183" rx="77.1866" ry="18"/>
<text text-anchor="middle" x="382" y="-179.3" font-family="Times,serif" font-size="14.00">ApplicationRecord</text>
</g>
<!-- Client&#45;&gt;Hour -->
<g id="edge4" class="edge"><title>Client&#45;&gt;Hour</title>
<path fill="none" stroke="#0389e9" d="M229,-63.6398C229,-58.0629 229,-52.1319 229,-46.4761"/>
<ellipse fill="none" stroke="#0389e9" cx="229" cy="-67.6966" rx="4" ry="4"/>
<polygon fill="#0389e9" stroke="#0389e9" points="229,-46.1043 233.5,-36.1043 229,-41.1043 229,-36.1043 229,-36.1043 229,-36.1043 229,-41.1043 224.5,-36.1044 229,-46.1043 229,-46.1043"/>
</g>
</g>
</svg>
